<svg width="2883" height="844" viewBox="0 0 2883 844" fill="none" xmlns="http://www.w3.org/2000/svg">
<path d="M1140.37 63.3409C1357.99 98.3552 1577.76 137.276 1791.83 146.246C1896 150.617 1997.61 148.048 2088.62 136.336C2178.11 124.818 2241.09 94.9972 2335.24 89.2307C2450.19 82.2017 2577.8 107.243 2678.52 156.387C2987.02 306.88 2886.08 516.473 2757.83 630.79C2535.76 828.69 1938.78 864.941 1413.16 833.984C1021.55 810.908 594.424 724.006 292.065 555.96C36.8073 414.105 -68.0507 244.362 47.7322 114.601C148.285 1.89718 454.782 -13.3474 738.096 10.2962C869.6 21.2751 1004.88 41.5532 1140.37 63.3409Z" fill="#C05A0B"/>
</svg>
