<svg width="615" height="716" viewBox="0 0 615 716" fill="none" xmlns="http://www.w3.org/2000/svg">
<path d="M157.528 320.095C203.333 283.887 250.841 248.761 286.963 202.835C304.543 180.489 319.294 155.928 329.204 130.121C338.948 104.744 338.188 78.0987 350.667 53.9727C365.908 24.5178 394.35 5.10955 427.106 1.6789C527.423 -8.84086 585.403 99.3334 605.75 175.28C640.969 306.763 561.729 459.625 469.904 568.772C401.485 650.088 305.204 713.801 199.675 715.796C110.591 717.487 34.8897 673.077 7.20242 593.769C-16.8469 524.888 25.0175 447.769 76.9535 391.753C101.062 365.753 129.014 342.643 157.528 320.095Z" fill="#F8B883"/>
</svg>
