<svg width="2372" height="1016" viewBox="0 0 2372 1016" fill="none" xmlns="http://www.w3.org/2000/svg">
<path d="M909.917 812.118C1091.4 812.872 1275.12 809.761 1450.55 838.202C1535.92 852.035 1618.36 872.957 1691.05 901.93C1762.53 930.422 1810.2 974.085 1886.17 997.152C1978.93 1025.3 2085.9 1020.84 2173.9 985.376C2443.45 876.774 2386.73 630.857 2296.17 483.668C2139.38 228.854 1657.61 82.9249 1225.79 22.8085C904.055 -21.9695 545.635 -3.68137 278.961 125.103C53.8313 233.811 -52.2043 399.678 26.3112 561.435C94.4975 701.927 342.255 773.188 575.86 798.027C684.291 809.551 796.928 811.637 909.917 812.118Z" fill="#C05A0B"/>
</svg>
