<svg width="1138" height="547" viewBox="0 0 1138 547" fill="none" xmlns="http://www.w3.org/2000/svg">
<path d="M461.922 47.8193C546.657 60.0968 632.05 74.8599 716.688 70.021C757.875 67.6705 798.393 60.841 835.159 48.4736C871.311 36.312 897.849 13.3335 935.56 4.75686C981.607 -5.70774 1031.07 4.48586 1068.63 32.0414C1183.66 116.421 1132.97 260.694 1076.22 343.074C977.974 485.691 738.857 539.868 531.494 545.816C376.998 550.24 211.602 514.072 99.8934 417.726C5.58581 336.398 -27.5339 228.966 25.0317 136.958C70.6834 57.0455 193.28 31.4662 304.701 32.88C356.418 33.5393 409.167 40.1832 461.922 47.8193Z" fill="#C05A0B"/>
</svg>
