<svg width="533" height="757" viewBox="0 0 533 757" fill="none" xmlns="http://www.w3.org/2000/svg">
<path d="M437.555 300.118C435.514 357.178 431.362 414.792 444.309 471.003C450.606 498.357 460.759 525.059 475.379 549.005C489.755 572.552 512.621 589.192 524.016 613.942C537.923 644.164 534.079 677.61 513.796 703.916C451.689 784.487 320.049 757.307 242.022 723.251C106.941 664.286 34.8673 507.339 8.32251 369.352C-11.4483 266.544 3.231 154.606 76.1655 75.7036C137.731 9.09246 228.465 -17.9189 314.499 12.9083C389.222 39.6806 424.249 120.249 434.472 194.604C439.215 229.117 438.82 264.593 437.555 300.118Z" fill="#A7FFDE"/>
</svg>
