<svg width="500" height="787" viewBox="0 0 500 787" fill="none" xmlns="http://www.w3.org/2000/svg">
<path d="M59.5761 377.164C86.326 427.607 115.216 477.627 128.11 533.85C134.388 561.208 136.913 589.663 134.215 617.59C131.562 645.051 118.256 670.004 118.811 697.246C119.495 730.508 137.556 758.919 167.289 773.729C258.342 819.098 364.904 737.171 420.233 672.464C516.013 560.439 512.33 387.773 475.964 252.043C448.864 150.919 386.784 56.624 286.719 17.4833C202.249 -15.5633 108.826 -0.248482 44.8854 65.0483C-10.6503 121.759 -6.98536 209.536 16.2814 280.893C27.0833 314.013 42.9281 345.756 59.5761 377.164Z" fill="#FFEBAC"/>
</svg>
