<svg width="765" height="512" viewBox="0 0 765 512" fill="none" xmlns="http://www.w3.org/2000/svg">
<path d="M311.514 75.3133C368.367 80.5907 425.652 88.0064 482.507 78.2708C510.174 73.5368 537.41 64.9162 562.147 51.6794C586.472 38.6629 604.383 16.7785 629.74 6.80667C660.703 -5.36246 693.877 0.37421 718.989 22.1178C795.905 88.6983 761.296 218.583 722.866 294.551C656.327 426.067 495.542 489.115 356.271 507.784C252.506 521.687 141.582 500.677 66.9472 423.381C3.93836 358.134 -17.8789 266.013 17.7825 181.868C48.7534 108.785 131.18 78.3879 205.996 72.4017C240.722 69.6258 276.118 72.0345 311.514 75.3133Z" fill="#E890A4"/>
</svg>
