<svg width="2347" height="1006" viewBox="0 0 2347 1006" fill="none" xmlns="http://www.w3.org/2000/svg">
<path d="M1464.59 265.886C1283.65 252.003 1100.21 241.453 927.252 202.961C843.085 184.235 762.34 159.31 691.88 127.809C622.594 96.8326 578.128 53.8627 503.987 27.4676C413.453 -4.75102 306.457 -8.4965 216.197 17.1904C-60.2504 95.8371 -20.9734 322.448 58.9871 462.2C197.438 704.14 667.646 871.21 1094.08 957.011C1411.79 1020.93 1770.53 1030.45 2045.54 933.339C2277.7 851.366 2395.11 709.016 2328.18 556.96C2270.06 424.895 2027.98 342.401 1796.75 302.936C1689.42 284.622 1577.24 274.541 1464.59 265.886Z" fill="#411A23"/>
</svg>
