<svg width="2658" height="897" viewBox="0 0 2658 897" fill="none" xmlns="http://www.w3.org/2000/svg">
<path d="M1059.56 49.7989C1259.46 81.0247 1461.22 116.506 1658.75 118.984C1754.87 120.197 1848.87 113.807 1933.39 97.6502C2016.5 81.7616 2075.74 46.509 2162.95 36.8341C2269.43 25.0339 2386.5 48.3428 2477.87 99.3083C2757.74 255.376 2657.14 491.234 2534.62 622.429C2322.48 849.549 1769.5 910.55 1284.81 894.561C923.686 882.636 531.966 801.197 258.387 625.457C27.4265 477.109 -63.5639 292.601 47.9666 144.721C144.827 16.2802 428.621 -11.306 689.634 5.02445C810.786 12.6094 935.103 30.371 1059.56 49.7989Z" fill="#E4032F"/>
</svg>
