<svg width="1920" height="892" viewBox="0 0 1920 892" fill="none" xmlns="http://www.w3.org/2000/svg">
<path d="M640.683 48.8215C839.498 79.8776 1040.16 115.166 1236.61 117.631C1332.22 118.837 1425.7 112.482 1509.76 96.4128C1592.42 80.6106 1651.34 45.5495 1738.07 35.9272C1843.98 24.1912 1960.41 47.3734 2051.29 98.0618C2329.63 253.282 2229.58 487.858 2107.73 618.339C1896.74 844.225 1346.76 904.894 864.706 888.992C505.548 877.132 115.957 796.136 -156.135 621.351C-385.84 473.809 -476.336 290.304 -365.412 143.228C-269.078 15.485 13.1742 -11.9513 272.768 4.29043C393.262 11.8342 516.903 29.4992 640.683 48.8215Z" fill="#FFEBAC"/>
</svg>
