<svg width="24" height="24" viewBox="0 0 24 24" fill="none" xmlns="http://www.w3.org/2000/svg">
<path opacity="0.4" d="M21.8484 11.4099L21.2284 18.1899C21.0184 20.1899 20.1984 22.2299 15.7984 22.2299H8.17844C3.77844 22.2299 2.95844 20.1899 2.75844 18.1999L2.14844 11.6899C2.15844 11.6999 2.16844 11.7099 2.18844 11.7199C2.52844 11.9399 2.85844 12.1599 3.21844 12.3599C3.35844 12.4499 3.50844 12.5299 3.65844 12.6099C4.78844 13.2299 5.99844 13.7199 7.24844 14.0599C7.74844 14.2099 8.25844 14.3199 8.77844 14.4099C8.97844 16.0099 10.3484 17.2499 11.9984 17.2499C13.6684 17.2499 15.0484 15.9799 15.2284 14.3499V14.3399C15.7384 14.2399 16.2484 14.1099 16.7484 13.9599C17.9984 13.5699 19.2084 13.0499 20.3384 12.3899C20.3984 12.3599 20.4484 12.3299 20.4884 12.2999C20.9484 12.0499 21.3884 11.7599 21.8084 11.4599C21.8284 11.4499 21.8384 11.4299 21.8484 11.4099Z" fill="#FFEBAC"/>
<path d="M21.091 6.98002C20.241 6.04002 18.831 5.57002 16.761 5.57002H16.521V5.53002C16.521 3.85002 16.521 1.77002 12.761 1.77002H11.241C7.48101 1.77002 7.48101 3.85002 7.48101 5.53002V5.57002H7.24101C5.17101 5.57002 3.75101 6.04002 2.91101 6.98002C1.92101 8.09002 1.95101 9.56002 2.05101 10.57L2.06101 10.64L2.15101 11.69C2.16101 11.7 2.18101 11.71 2.20101 11.72C2.54101 11.94 2.87101 12.16 3.23101 12.36C3.37101 12.45 3.52101 12.53 3.67101 12.61C4.80101 13.23 6.01101 13.72 7.25101 14.06C7.28101 16.65 9.40101 18.75 12.001 18.75C14.621 18.75 16.751 16.62 16.751 14V13.96C18.011 13.58 19.221 13.05 20.351 12.39C20.411 12.36 20.451 12.33 20.501 12.3C20.961 12.05 21.401 11.76 21.821 11.46C21.831 11.45 21.851 11.43 21.861 11.41L21.901 11.05L21.951 10.58C21.961 10.52 21.961 10.47 21.971 10.4C22.051 9.40002 22.031 8.02002 21.091 6.98002ZM8.91101 5.53002C8.91101 3.83002 8.91101 3.19002 11.241 3.19002H12.761C15.091 3.19002 15.091 3.83002 15.091 5.53002V5.57002H8.91101V5.53002ZM12.001 17.25C10.351 17.25 8.98101 16.01 8.78101 14.41C8.76101 14.28 8.75101 14.14 8.75101 14C8.75101 12.21 10.211 10.75 12.001 10.75C13.791 10.75 15.251 12.21 15.251 14C15.251 14.12 15.241 14.23 15.231 14.34V14.35C15.051 15.98 13.671 17.25 12.001 17.25Z" fill="#FFEBAC"/>
<path d="M11.4289 16.0301C11.2389 16.0301 11.0489 15.9601 10.8989 15.8101L9.90891 14.8301C9.61891 14.5401 9.61891 14.0601 9.90891 13.7701C10.1989 13.4801 10.6789 13.4801 10.9689 13.7701L11.4489 14.2501L13.0589 12.7701C13.3589 12.4901 13.8389 12.5101 14.1189 12.8101C14.3989 13.1101 14.3789 13.5901 14.0789 13.8701L11.9489 15.8401C11.7889 15.9601 11.6089 16.0301 11.4289 16.0301Z" fill="#FFEBAC"/>
</svg>
