<svg width="24" height="24" viewBox="0 0 24 24" fill="none" xmlns="http://www.w3.org/2000/svg">
<path opacity="0.4" d="M16.2391 3.6499H7.75906C5.28906 3.6499 3.28906 5.6599 3.28906 8.1199V17.5299C3.28906 19.9899 5.29906 21.9999 7.75906 21.9999H16.2291C18.6991 21.9999 20.6991 19.9899 20.6991 17.5299V8.1199C20.7091 5.6499 18.6991 3.6499 16.2391 3.6499Z" fill="#FFA7B1"/>
<path d="M14.3517 2H9.65172C8.61172 2 7.76172 2.84 7.76172 3.88V4.82C7.76172 5.86 8.60172 6.7 9.64172 6.7H14.3517C15.3917 6.7 16.2317 5.86 16.2317 4.82V3.88C16.2417 2.84 15.3917 2 14.3517 2Z" fill="#FFA7B1"/>
<path d="M14.5314 15.6199L13.0814 14.1699L14.4814 12.7699C14.7714 12.4799 14.7714 11.9999 14.4814 11.7099C14.1914 11.4199 13.7114 11.4199 13.4214 11.7099L12.0214 13.1099L10.5714 11.6599C10.2814 11.3699 9.80141 11.3699 9.51141 11.6599C9.22141 11.9499 9.22141 12.4299 9.51141 12.7199L10.9614 14.1699L9.47141 15.6599C9.18141 15.9499 9.18141 16.4299 9.47141 16.7199C9.62141 16.8699 9.81141 16.9399 10.0014 16.9399C10.1914 16.9399 10.3814 16.8699 10.5314 16.7199L12.0214 15.2299L13.4714 16.6799C13.6214 16.8299 13.8114 16.8999 14.0014 16.8999C14.1914 16.8999 14.3814 16.8299 14.5314 16.6799C14.8214 16.3899 14.8214 15.9199 14.5314 15.6199Z" fill="#FFA7B1"/>
</svg>
