<svg width="24" height="24" viewBox="0 0 24 24" fill="none" xmlns="http://www.w3.org/2000/svg">
<path opacity="0.4" d="M20.2713 17.1899C19.2713 18.0999 17.9813 18.5999 16.6313 18.5899H16.5413C16.8413 17.9699 17.0013 17.2699 17.0013 16.5299C17.0013 13.7699 14.7613 11.5299 12.0013 11.5299C9.24127 11.5299 7.00127 13.7699 7.00127 16.5299C7.00127 17.2699 7.16129 17.9699 7.46129 18.5899H5.54125C0.86125 18.2599 0.86125 11.4499 5.54125 11.1199H5.5913C2.3813 2.1899 15.9212 -1.3801 17.4712 7.9999C21.8012 8.5499 23.5513 14.3199 20.2713 17.1899Z" fill="#F8B883"/>
<path d="M12 11.53C9.24 11.53 7 13.77 7 16.53C7 17.27 7.16002 17.97 7.46002 18.59C7.54002 18.77 7.62998 18.94 7.72998 19.1C8.58998 20.55 10.18 21.53 12 21.53C13.82 21.53 15.41 20.55 16.27 19.1C16.37 18.94 16.46 18.77 16.54 18.59C16.84 17.97 17 17.27 17 16.53C17 13.77 14.76 11.53 12 11.53ZM14.07 16.1L11.94 18.07C11.8 18.2 11.61 18.27 11.43 18.27C11.24 18.27 11.05 18.2 10.9 18.05L9.90997 17.06C9.61997 16.77 9.61997 16.29 9.90997 16C10.2 15.71 10.68 15.71 10.97 16L11.45 16.48L13.05 15C13.36 14.72 13.83 14.74 14.11 15.04C14.39 15.34 14.37 15.81 14.07 16.1Z" fill="#F8B883"/>
</svg>
