<svg width="24" height="24" viewBox="0 0 24 24" fill="none" xmlns="http://www.w3.org/2000/svg">
<path opacity="0.4" d="M15 4H9C6.24 4 4 6.24 4 9V15C4 17.76 6.24 20 9 20H15C17.76 20 20 17.76 20 15V9C20 6.24 17.76 4 15 4ZM17.26 14.26C17.26 15.92 15.92 17.26 14.26 17.26H9.74C8.08 17.26 6.74 15.92 6.74 14.26V9.74C6.74 8.08 8.08 6.74 9.74 6.74H14.25C15.91 6.74 17.25 8.08 17.25 9.74V14.26H17.26Z" fill="#FFEBAC"/>
<path d="M9.05859 2.75V4H8.99859C8.49859 4 8.01859 4.07 7.55859 4.21V2.75C7.55859 2.34 7.88859 2 8.30859 2C8.71859 2 9.05859 2.34 9.05859 2.75Z" fill="#FFEBAC"/>
<path d="M12.75 2.75V4H11.25V2.75C11.25 2.34 11.59 2 12 2C12.41 2 12.75 2.34 12.75 2.75Z" fill="#FFEBAC"/>
<path d="M16.4492 2.75V4.21C15.9892 4.07 15.4992 4 14.9992 4H14.9492V2.75C14.9492 2.34 15.2892 2 15.6992 2C16.1092 2 16.4492 2.34 16.4492 2.75Z" fill="#FFEBAC"/>
<path d="M21.9991 8.30005C21.9991 8.72005 21.6691 9.05005 21.2491 9.05005H19.9991V9.00005C19.9991 8.50005 19.9291 8.01005 19.7891 7.55005H21.2491C21.6691 7.55005 21.9991 7.89005 21.9991 8.30005Z" fill="#FFEBAC"/>
<path d="M22 12C22 12.41 21.67 12.75 21.25 12.75H20V11.25H21.25C21.67 11.25 22 11.58 22 12Z" fill="#FFEBAC"/>
<path d="M21.9991 15.7C21.9991 16.11 21.6691 16.45 21.2491 16.45H19.7891C19.9291 15.99 19.9991 15.5 19.9991 15V14.95H21.2491C21.6691 14.95 21.9991 15.28 21.9991 15.7Z" fill="#FFEBAC"/>
<path d="M16.4492 19.79V21.25C16.4492 21.66 16.1092 22 15.6992 22C15.2892 22 14.9492 21.66 14.9492 21.25V20H14.9992C15.4992 20 15.9892 19.93 16.4492 19.79Z" fill="#FFEBAC"/>
<path d="M12.7617 20V21.25C12.7617 21.66 12.4217 22 12.0117 22C11.5917 22 11.2617 21.66 11.2617 21.25V20H12.7617Z" fill="#FFEBAC"/>
<path d="M9.05859 20V21.25C9.05859 21.66 8.71859 22 8.30859 22C7.88859 22 7.55859 21.66 7.55859 21.25V19.79C8.01859 19.93 8.49859 20 8.99859 20H9.05859Z" fill="#FFEBAC"/>
<path d="M4.21 7.55005C4.07 8.01005 4 8.50005 4 9.00005V9.05005H2.75C2.34 9.05005 2 8.72005 2 8.30005C2 7.89005 2.34 7.55005 2.75 7.55005H4.21Z" fill="#FFEBAC"/>
<path d="M4 11.25V12.75H2.75C2.34 12.75 2 12.41 2 12C2 11.58 2.34 11.25 2.75 11.25H4Z" fill="#FFEBAC"/>
<path d="M4.21 16.45H2.75C2.34 16.45 2 16.11 2 15.7C2 15.28 2.34 14.95 2.75 14.95H4V15C4 15.5 4.07 15.99 4.21 16.45Z" fill="#FFEBAC"/>
<path d="M14.2583 6.73999H9.73828C8.07828 6.73999 6.73828 8.07999 6.73828 9.73999V14.25C6.73828 15.91 8.07828 17.25 9.73828 17.25H14.2483C15.9083 17.25 17.2483 15.91 17.2483 14.25V9.73999C17.2583 8.08999 15.9083 6.73999 14.2583 6.73999ZM13.5883 13.04L12.6483 14.68C12.5083 14.92 12.2583 15.06 11.9983 15.06C11.8683 15.06 11.7383 15.03 11.6283 14.96C11.2683 14.75 11.1483 14.29 11.3483 13.94L12.0283 12.76H11.4383C10.9583 12.76 10.5683 12.55 10.3583 12.19C10.1483 11.83 10.1683 11.38 10.3983 10.97L11.3383 9.32999C11.5483 8.96999 12.0083 8.84999 12.3583 9.04999C12.7183 9.25999 12.8383 9.71999 12.6383 10.07L11.9583 11.25H12.5483C13.0283 11.25 13.4183 11.46 13.6283 11.82C13.8483 12.18 13.8283 12.62 13.5883 13.04Z" fill="#FFEBAC"/>
</svg>
