<svg width="24" height="24" viewBox="0 0 24 24" fill="none" xmlns="http://www.w3.org/2000/svg">
<path opacity="0.4" d="M19.3217 10H4.69173C3.21173 10 2.01172 8.79001 2.01172 7.32001V4.69001C2.01172 3.21001 3.22173 2.01001 4.69173 2.01001H19.3217C20.8017 2.01001 22.0017 3.22001 22.0017 4.69001V7.32001C22.0017 8.79001 20.7917 10 19.3217 10Z" fill="#FFA7B1"/>
<path opacity="0.4" d="M19.3217 22H4.69173C3.21173 22 2.01172 20.79 2.01172 19.32V16.69C2.01172 15.21 3.22173 14.01 4.69173 14.01H19.3217C20.8017 14.01 22.0017 15.22 22.0017 16.69V19.32C22.0017 20.79 20.7917 22 19.3217 22Z" fill="#FFA7B1"/>
<path d="M6 7.75C5.59 7.75 5.25 7.41 5.25 7V5C5.25 4.59 5.59 4.25 6 4.25C6.41 4.25 6.75 4.59 6.75 5V7C6.75 7.41 6.41 7.75 6 7.75Z" fill="#FFA7B1"/>
<path d="M10 7.75C9.59 7.75 9.25 7.41 9.25 7V5C9.25 4.59 9.59 4.25 10 4.25C10.41 4.25 10.75 4.59 10.75 5V7C10.75 7.41 10.41 7.75 10 7.75Z" fill="#FFA7B1"/>
<path d="M6 19.75C5.59 19.75 5.25 19.41 5.25 19V17C5.25 16.59 5.59 16.25 6 16.25C6.41 16.25 6.75 16.59 6.75 17V19C6.75 19.41 6.41 19.75 6 19.75Z" fill="#FFA7B1"/>
<path d="M10 19.75C9.59 19.75 9.25 19.41 9.25 19V17C9.25 16.59 9.59 16.25 10 16.25C10.41 16.25 10.75 16.59 10.75 17V19C10.75 19.41 10.41 19.75 10 19.75Z" fill="#FFA7B1"/>
<path d="M18 6.75H14C13.59 6.75 13.25 6.41 13.25 6C13.25 5.59 13.59 5.25 14 5.25H18C18.41 5.25 18.75 5.59 18.75 6C18.75 6.41 18.41 6.75 18 6.75Z" fill="#FFA7B1"/>
<path d="M18 18.75H14C13.59 18.75 13.25 18.41 13.25 18C13.25 17.59 13.59 17.25 14 17.25H18C18.41 17.25 18.75 17.59 18.75 18C18.75 18.41 18.41 18.75 18 18.75Z" fill="#FFA7B1"/>
</svg>
