<svg width="24" height="24" viewBox="0 0 24 24" fill="none" xmlns="http://www.w3.org/2000/svg">
<path opacity="0.4" d="M18 18.86H17.24C16.44 18.86 15.68 19.17 15.12 19.73L13.41 21.42C12.63 22.19 11.36 22.19 10.58 21.42L8.87 19.73C8.31 19.17 7.54 18.86 6.75 18.86H6C4.34 18.86 3 17.53 3 15.89V4.97998C3 3.33998 4.34 2.01001 6 2.01001H18C19.66 2.01001 21 3.33998 21 4.97998V15.89C21 17.52 19.66 18.86 18 18.86Z" fill="#E890A4"/>
<path d="M10.3783 14.5099H7.69827C7.25827 14.5099 6.84827 14.2999 6.58827 13.9399C6.33827 13.5999 6.27827 13.18 6.39827 12.78C6.74827 11.71 7.60827 11.1299 8.36827 10.6099C9.16827 10.0699 9.61827 9.72996 9.61827 9.14996C9.61827 8.62996 9.19827 8.20996 8.67827 8.20996C8.15827 8.20996 7.73828 8.62996 7.73828 9.14996C7.73828 9.55996 7.39828 9.89996 6.98828 9.89996C6.57828 9.89996 6.23828 9.55996 6.23828 9.14996C6.23828 7.80996 7.32827 6.70996 8.67827 6.70996C10.0283 6.70996 11.1183 7.79996 11.1183 9.14996C11.1183 10.56 10.0583 11.2799 9.20828 11.8599C8.67828 12.2199 8.17827 12.5599 7.92827 13.0099H10.3683C10.7783 13.0099 11.1183 13.3499 11.1183 13.7599C11.1183 14.1699 10.7883 14.5099 10.3783 14.5099Z" fill="#E890A4"/>
<path d="M16.0389 14.5099C15.6289 14.5099 15.2889 14.1699 15.2889 13.7599V13.0699H13.3289C13.3289 13.0699 13.3289 13.0699 13.3189 13.0699C12.8289 13.0699 12.3789 12.81 12.1289 12.39C11.8789 11.96 11.8789 11.4299 12.1289 11.0099C12.8089 9.83995 13.5989 8.50991 14.3189 7.34991C14.6389 6.83991 15.2489 6.60996 15.8189 6.76996C16.3889 6.93996 16.7889 7.45993 16.7789 8.05993V11.58H16.9989C17.4089 11.58 17.7489 11.92 17.7489 12.33C17.7489 12.74 17.4089 13.08 16.9989 13.08H16.7889V13.77C16.7889 14.18 16.4589 14.5099 16.0389 14.5099ZM15.2889 8.63995C14.6989 9.59995 14.0889 10.6299 13.5389 11.5699H15.2889V8.63995Z" fill="#E890A4"/>
</svg>
